<?xml version="1.0" encoding="UTF-8"?>
<svg width="200" height="40" viewBox="0 0 200 40" xmlns="http://www.w3.org/2000/svg">
  <style>
    .text { font: bold 24px sans-serif; fill: #4F46E5; }
    .bear { fill: #4F46E5; }
  </style>
  <path class="bear" d="M35 5c-8.284 0-15 6.716-15 15 0 8.284 6.716 15 15 15 8.284 0 15-6.716 15-15 0-8.284-6.716-15-15-15zm-5 10c1.657 0 3 1.343 3 3s-1.343 3-3 3-3-1.343-3-3 1.343-3 3-3zm10 0c1.657 0 3 1.343 3 3s-1.343 3-3 3-3-1.343-3-3 1.343-3 3-3zm-5 8c4 0 7 2 7 5H28c0-3 3-5 7-5z"/>
  <text x="60" y="28" class="text">BearBazaar</text>
</svg>